<?xml version="1.0" encoding="utf-8"?>
<!-- Generator: Avocode 2.6.0 - http://avocode.com -->
<svg height="62" width="55" xmlns:xlink="http://www.w3.org/1999/xlink" xmlns="http://www.w3.org/2000/svg" viewBox="0 0 55 62">
    <path fill="#459dd9" fill-rule="evenodd" d="M 51.69 62.02 C 51.69 62.02 3.32 62.02 3.32 62.02 C 1.49 62.02 0 60.48 0 58.59 C 0 58.59 0 9.54 0 9.54 C 0 7.65 1.49 6.12 3.32 6.12 C 3.32 6.12 13.75 6.12 13.75 6.12 C 13.75 6.12 13.75 1.47 13.75 1.47 C 13.75 0.66 14.39 0 15.18 0 C 15.96 0 16.6 0.66 16.6 1.47 C 16.6 1.47 16.6 6.12 16.6 6.12 C 16.6 6.12 38.41 6.12 38.41 6.12 C 38.41 6.12 38.41 1.47 38.41 1.47 C 38.41 0.66 39.05 0 39.83 0 C 40.62 0 41.26 0.66 41.26 1.47 C 41.26 1.47 41.26 6.12 41.26 6.12 C 41.26 6.12 51.69 6.12 51.69 6.12 C 53.52 6.12 55.01 7.65 55.01 9.54 C 55.01 9.54 55.01 58.59 55.01 58.59 C 55.01 60.48 53.52 62.02 51.69 62.02 Z M 3.32 59.08 C 3.32 59.08 51.69 59.08 51.69 59.08 C 51.95 59.08 52.16 58.86 52.16 58.59 C 52.16 58.59 52.16 24.7 52.16 24.7 C 52.16 24.7 2.85 24.7 2.85 24.7 C 2.85 24.7 2.85 58.59 2.85 58.59 C 2.85 58.86 3.06 59.08 3.32 59.08 Z M 51.69 9.05 C 51.69 9.05 41.26 9.05 41.26 9.05 C 41.26 9.05 41.26 12.88 41.26 12.88 C 41.26 13.69 40.62 14.35 39.83 14.35 C 39.05 14.35 38.41 13.69 38.41 12.88 C 38.41 12.88 38.41 9.05 38.41 9.05 C 38.41 9.05 16.6 9.05 16.6 9.05 C 16.6 9.05 16.6 12.88 16.6 12.88 C 16.6 13.69 15.96 14.35 15.18 14.35 C 14.39 14.35 13.75 13.69 13.75 12.88 C 13.75 12.88 13.75 9.05 13.75 9.05 C 13.75 9.05 3.32 9.05 3.32 9.05 C 3.06 9.05 2.85 9.27 2.85 9.54 C 2.85 9.54 2.85 21.76 2.85 21.76 C 2.85 21.76 52.16 21.76 52.16 21.76 C 52.16 21.76 52.16 9.54 52.16 9.54 C 52.16 9.27 51.95 9.05 51.69 9.05 Z M 16.51 49.77 C 18.61 51.87 22.19 51.84 24.27 49.76 C 25.3 48.69 25.87 47.27 25.87 45.75 C 25.87 44.23 25.3 42.82 24.27 41.78 C 23.25 40.71 21.88 40.12 20.4 40.12 C 20.08 40.12 19.77 40 19.52 39.78 C 19.52 39.78 19.51 39.78 19.51 39.78 C 19.51 39.78 19.31 39.61 19.31 39.61 C 18.76 39.04 18.76 38.12 19.31 37.55 C 19.31 37.55 23.97 32.61 23.97 32.61 C 23.97 32.61 16.68 32.61 16.68 32.61 C 15.9 32.61 15.28 31.97 15.28 31.17 C 15.28 30.36 15.9 29.73 16.68 29.73 C 16.68 29.73 27.27 29.73 27.27 29.73 C 28.05 29.73 28.66 30.36 28.66 31.17 C 28.66 31.39 28.61 31.62 28.51 31.8 C 28.45 31.96 28.35 32.11 28.24 32.23 C 28.24 32.23 23.08 37.69 23.08 37.69 C 24.28 38.11 25.37 38.8 26.26 39.72 C 27.81 41.32 28.66 43.46 28.66 45.75 C 28.66 48.06 27.8 50.2 26.22 51.79 C 24.68 53.39 22.54 54.3 20.37 54.3 C 18.16 54.3 16.09 53.41 14.55 51.78 C 14.3 51.56 14.14 51.21 14.14 50.83 C 14.13 50.43 14.28 50.05 14.55 49.76 C 15 49.24 15.98 49.21 16.51 49.77 Z M 33.32 32.73 C 33.32 32.73 37.65 30.01 37.65 30.01 C 38.34 29.62 39.2 29.91 39.54 30.54 C 39.7 30.88 39.75 31.21 39.7 31.54 C 39.7 31.54 39.71 52.9 39.71 52.9 C 39.71 53.69 39.11 54.3 38.34 54.3 C 37.6 54.3 36.98 53.66 36.98 52.9 C 36.98 52.9 36.98 33.76 36.98 33.76 C 36.98 33.76 34.66 35.16 34.66 35.16 C 34.52 35.26 34.25 35.38 33.97 35.38 C 33.48 35.38 33.03 35.11 32.78 34.67 C 32.58 34.29 32.54 33.89 32.65 33.52 C 32.76 33.18 33 32.9 33.32 32.73 Z" />
</svg>