<?xml version="1.0" encoding="utf-8"?>
<!-- Generator: Avocode 2.6.0 - http://avocode.com -->
<svg height="61" width="54" xmlns:xlink="http://www.w3.org/1999/xlink" xmlns="http://www.w3.org/2000/svg" viewBox="0 0 54 61">
    <path fill="#459dd9" fill-rule="evenodd" d="M 52.47 60.67 C 52.47 60.67 1.67 60.67 1.67 60.67 C 0.94 60.67 0.35 60.09 0.35 59.38 C 0.35 59.38 0.35 8.46 0.35 8.46 C 0.35 7.75 0.94 7.18 1.67 7.18 C 1.67 7.18 8.7 7.18 8.7 7.18 C 9.43 7.18 10.03 7.75 10.03 8.46 C 10.03 9.18 9.43 9.75 8.7 9.75 C 8.7 9.75 3 9.75 3 9.75 C 3 9.75 3 58.09 3 58.09 C 3 58.09 51.14 58.09 51.14 58.09 C 51.14 58.09 51.14 9.75 51.14 9.75 C 51.14 9.75 45.44 9.75 45.44 9.75 C 44.71 9.75 44.11 9.18 44.11 8.46 C 44.11 7.75 44.71 7.18 45.44 7.18 C 45.44 7.18 52.47 7.18 52.47 7.18 C 53.2 7.18 53.79 7.75 53.79 8.46 C 53.79 8.46 53.79 59.38 53.79 59.38 C 53.79 60.09 53.2 60.67 52.47 60.67 Z M 15.8 25.86 C 15.8 25.86 38.34 25.86 38.34 25.86 C 39.07 25.86 39.66 26.43 39.66 27.14 C 39.66 27.86 39.07 28.43 38.34 28.43 C 38.34 28.43 15.8 28.43 15.8 28.43 C 15.07 28.43 14.48 27.86 14.48 27.14 C 14.48 26.43 15.07 25.86 15.8 25.86 Z M 15.8 47.73 C 15.8 47.73 38.34 47.73 38.34 47.73 C 39.07 47.73 39.66 48.31 39.66 49.02 C 39.66 49.74 39.07 50.31 38.34 50.31 C 38.34 50.31 15.8 50.31 15.8 50.31 C 15.07 50.31 14.48 49.74 14.48 49.02 C 14.48 48.31 15.07 47.73 15.8 47.73 Z M 15.8 36.79 C 15.8 36.79 38.34 36.79 38.34 36.79 C 39.07 36.79 39.66 37.37 39.66 38.08 C 39.66 38.8 39.07 39.37 38.34 39.37 C 38.34 39.37 15.8 39.37 15.8 39.37 C 15.07 39.37 14.48 38.8 14.48 38.08 C 14.48 37.37 15.07 36.79 15.8 36.79 Z M 40.14 18.19 C 40.14 18.19 14 18.19 14 18.19 C 13.27 18.19 12.68 17.61 12.68 16.9 C 12.68 16.9 12.68 5.57 12.68 5.57 C 12.68 4.86 13.27 4.28 14 4.28 C 14 4.28 18.31 4.28 18.31 4.28 C 18.31 4.28 18.31 1.71 18.31 1.71 C 18.31 1 18.91 0.42 19.64 0.42 C 19.64 0.42 34.5 0.42 34.5 0.42 C 35.23 0.42 35.83 1 35.83 1.71 C 35.83 1.71 35.83 4.28 35.83 4.28 C 35.83 4.28 40.14 4.28 40.14 4.28 C 40.87 4.28 41.46 4.86 41.46 5.57 C 41.46 5.57 41.46 16.9 41.46 16.9 C 41.46 17.61 40.87 18.19 40.14 18.19 Z M 38.81 6.86 C 38.81 6.86 38.81 6.86 38.81 6.86 C 38.81 6.86 34.5 6.86 34.5 6.86 C 33.77 6.86 33.18 6.28 33.18 5.57 C 33.18 5.57 33.18 3 33.18 3 C 33.18 3 20.96 3 20.96 3 C 20.96 3 20.96 5.57 20.96 5.57 C 20.96 6.29 20.37 6.86 19.64 6.86 C 19.64 6.86 15.32 6.86 15.32 6.86 C 15.32 6.86 15.32 15.61 15.32 15.61 C 15.32 15.61 38.81 15.61 38.81 15.61 C 38.81 15.61 38.81 6.86 38.81 6.86 Z M 27.07 5.78 C 28.44 5.78 29.55 6.86 29.55 8.19 C 29.55 9.52 28.44 10.6 27.07 10.6 C 25.7 10.6 24.59 9.52 24.59 8.19 C 24.59 6.86 25.7 5.78 27.07 5.78 Z" />
</svg>