<?xml version="1.0" encoding="UTF-8" standalone="no"?>
<svg width="56px" height="69px" viewBox="0 0 56 69" version="1.1" xmlns="http://www.w3.org/2000/svg" xmlns:xlink="http://www.w3.org/1999/xlink" xmlns:sketch="http://www.bohemiancoding.com/sketch/ns">
    <!-- Generator: Sketch 3.4 (15588) - http://www.bohemiancoding.com/sketch -->
    <title>Slice 1</title>
    <desc>Created with Sketch.</desc>
    <defs></defs>
    <g id="Page-1" stroke="none" stroke-width="1" fill="none" fill-rule="evenodd" sketch:type="MSPage">
        <path d="M54.41,32.92 C52.32,35.02 48.94,35.01 46.86,32.92 L33.33,19.3 L33.33,62.64 C33.33,65.6 30.94,68.01 27.99,68.01 C25.04,68.01 22.65,65.6 22.65,62.64 L22.65,19.32 L9.12,32.92 C7.04,35.01 3.66,35.01 1.57,32.92 C-0.51,30.82 -0.51,27.43 1.57,25.33 L24.22,2.56 C25.22,1.56 26.58,0.99 28,0.99 C29.41,0.99 30.77,1.56 31.77,2.56 L54.41,25.33 C56.49,27.43 56.49,30.82 54.41,32.92 L54.41,32.92 Z" id="Shape" fill="#BF1414" sketch:type="MSShapeGroup" transform="translate(27.990000, 34.500000) rotate(180.000000) translate(-27.990000, -34.500000) "></path>
    </g>
</svg>