<?xml version="1.0" encoding="utf-8"?>
<!-- Generator: Avocode 2.6.0 - http://avocode.com -->
<svg height="61" width="61" xmlns:xlink="http://www.w3.org/1999/xlink" xmlns="http://www.w3.org/2000/svg" viewBox="0 0 61 61">
    <path fill="#459dd9" fill-rule="evenodd" d="M 30.3 60.68 C 13.58 60.68 -0.02 47.11 -0.02 30.42 C -0.02 13.73 13.58 0.16 30.3 0.16 C 47.02 0.16 60.62 13.73 60.62 30.42 C 60.62 47.11 47.02 60.68 30.3 60.68 Z M 2.98 30.42 C 2.98 35.77 4.56 40.75 7.23 44.96 C 7.23 44.96 20.61 30.98 20.61 30.98 C 21.14 30.42 22 30.36 22.61 30.82 C 22.61 30.82 32.73 38.58 32.73 38.58 C 32.73 38.58 48.64 10.31 48.64 10.31 C 48.65 10.3 48.65 10.29 48.66 10.28 C 43.8 5.87 37.37 3.15 30.3 3.15 C 15.24 3.15 2.98 15.38 2.98 30.42 Z M 50.85 12.5 C 50.85 12.5 34.5 41.55 34.5 41.55 C 34.28 41.93 33.92 42.2 33.49 42.29 C 33.07 42.38 32.62 42.27 32.27 42.01 C 32.27 42.01 21.85 34.02 21.85 34.02 C 21.85 34.02 9 47.45 9 47.45 C 14.01 53.68 21.69 57.69 30.3 57.69 C 45.37 57.69 57.62 45.46 57.62 30.42 C 57.62 23.56 55.05 17.3 50.85 12.5 Z" />
</svg>