<?xml version="1.0" encoding="utf-8"?>
<!-- Generator: Avocode 2.6.0 - http://avocode.com -->
<svg height="67" width="56" xmlns:xlink="http://www.w3.org/1999/xlink" xmlns="http://www.w3.org/2000/svg" viewBox="0 0 56 67">
    <path fill="#14bf44" fill-rule="evenodd" d="M 54.41 31.92 C 52.32 34.02 48.94 34.01 46.86 31.92 C 46.86 31.92 33.33 18.3 33.33 18.3 C 33.33 18.3 33.33 61.64 33.33 61.64 C 33.33 64.6 30.94 67.01 27.99 67.01 C 25.04 67.01 22.65 64.6 22.65 61.64 C 22.65 61.64 22.65 18.32 22.65 18.32 C 22.65 18.32 9.12 31.92 9.12 31.92 C 7.04 34.01 3.66 34.01 1.57 31.92 C -0.51 29.82 -0.51 26.43 1.57 24.33 C 1.57 24.33 24.22 1.56 24.22 1.56 C 25.22 0.56 26.58 -0.01 28 -0.01 C 29.41 -0.01 30.77 0.56 31.77 1.56 C 31.77 1.56 54.41 24.33 54.41 24.33 C 56.49 26.43 56.49 29.82 54.41 31.92 Z" />
</svg>