<?xml version="1.0" encoding="utf-8"?>
<!-- Generator: Avocode 2.6.0 - http://avocode.com -->
<svg height="61" width="53" xmlns:xlink="http://www.w3.org/1999/xlink" xmlns="http://www.w3.org/2000/svg" viewBox="0 0 53 61">
    <path fill="#459dd9" fill-rule="evenodd" d="M 49.69 61.02 C 49.69 61.02 3.32 61.02 3.32 61.02 C 1.49 61.02 0 59.48 0 57.6 C 0 57.6 0 9.54 0 9.54 C 0 7.65 1.49 6.12 3.32 6.12 C 3.32 6.12 13.75 6.12 13.75 6.12 C 13.75 6.12 13.75 1.47 13.75 1.47 C 13.75 0.66 14.39 0.01 15.18 0.01 C 15.96 0.01 16.6 0.66 16.6 1.47 C 16.6 1.47 16.6 6.12 16.6 6.12 C 16.6 6.12 36.41 6.12 36.41 6.12 C 36.41 6.12 36.41 1.47 36.41 1.47 C 36.41 0.66 37.05 0.01 37.83 0.01 C 38.62 0.01 39.26 0.66 39.26 1.47 C 39.26 1.47 39.26 6.12 39.26 6.12 C 39.26 6.12 49.69 6.12 49.69 6.12 C 51.52 6.12 53.01 7.65 53.01 9.54 C 53.01 9.54 53.01 57.6 53.01 57.6 C 53.01 59.48 51.52 61.02 49.69 61.02 Z M 50.16 9.54 C 50.16 9.27 49.95 9.05 49.69 9.05 C 49.69 9.05 39.26 9.05 39.26 9.05 C 39.26 9.05 39.26 12.88 39.26 12.88 C 39.26 13.69 38.62 14.35 37.83 14.35 C 37.05 14.35 36.41 13.69 36.41 12.88 C 36.41 12.88 36.41 9.05 36.41 9.05 C 36.41 9.05 16.6 9.05 16.6 9.05 C 16.6 9.05 16.6 12.88 16.6 12.88 C 16.6 13.69 15.96 14.35 15.18 14.35 C 14.39 14.35 13.75 13.69 13.75 12.88 C 13.75 12.88 13.75 9.05 13.75 9.05 C 13.75 9.05 3.32 9.05 3.32 9.05 C 3.06 9.05 2.84 9.27 2.84 9.54 C 2.84 9.54 2.84 21.76 2.84 21.76 C 2.84 21.76 50.16 21.76 50.16 21.76 C 50.16 21.76 50.16 9.54 50.16 9.54 Z M 50.16 24.7 C 50.16 24.7 2.84 24.7 2.84 24.7 C 2.84 24.7 2.84 57.6 2.84 57.6 C 2.84 57.86 3.06 58.08 3.32 58.08 C 3.32 58.08 49.69 58.08 49.69 58.08 C 49.95 58.08 50.16 57.86 50.16 57.6 C 50.16 57.6 50.16 24.7 50.16 24.7 Z M 37.6 50 C 37.6 50 36 50 36 50 C 34.68 50 33.6 48.91 33.6 47.57 C 33.6 47.57 33.6 45.95 33.6 45.95 C 33.6 44.61 34.68 43.52 36 43.52 C 36 43.52 37.6 43.52 37.6 43.52 C 38.93 43.52 40 44.61 40 45.95 C 40 45.95 40 47.57 40 47.57 C 40 48.91 38.93 50 37.6 50 Z M 37.6 39.48 C 37.6 39.48 36 39.48 36 39.48 C 34.68 39.48 33.6 38.39 33.6 37.05 C 33.6 37.05 33.6 35.43 33.6 35.43 C 33.6 34.09 34.68 33 36 33 C 36 33 37.6 33 37.6 33 C 38.93 33 40 34.09 40 35.43 C 40 35.43 40 37.05 40 37.05 C 40 38.39 38.93 39.48 37.6 39.48 Z M 26.8 50 C 26.8 50 25.2 50 25.2 50 C 23.88 50 22.8 48.91 22.8 47.57 C 22.8 47.57 22.8 45.95 22.8 45.95 C 22.8 44.61 23.88 43.52 25.2 43.52 C 25.2 43.52 26.8 43.52 26.8 43.52 C 28.13 43.52 29.2 44.61 29.2 45.95 C 29.2 45.95 29.2 47.57 29.2 47.57 C 29.2 48.91 28.13 50 26.8 50 Z M 26.8 39.48 C 26.8 39.48 25.2 39.48 25.2 39.48 C 23.88 39.48 22.8 38.39 22.8 37.05 C 22.8 37.05 22.8 35.43 22.8 35.43 C 22.8 34.09 23.88 33 25.2 33 C 25.2 33 26.8 33 26.8 33 C 28.13 33 29.2 34.09 29.2 35.43 C 29.2 35.43 29.2 37.05 29.2 37.05 C 29.2 38.39 28.13 39.48 26.8 39.48 Z M 16 50 C 16 50 14.4 50 14.4 50 C 13.07 50 12 48.91 12 47.57 C 12 47.57 12 45.95 12 45.95 C 12 44.61 13.07 43.52 14.4 43.52 C 14.4 43.52 16 43.52 16 43.52 C 17.32 43.52 18.4 44.61 18.4 45.95 C 18.4 45.95 18.4 47.57 18.4 47.57 C 18.4 48.91 17.32 50 16 50 Z M 16 39.48 C 16 39.48 14.4 39.48 14.4 39.48 C 13.07 39.48 12 38.39 12 37.05 C 12 37.05 12 35.43 12 35.43 C 12 34.09 13.07 33 14.4 33 C 14.4 33 16 33 16 33 C 17.32 33 18.4 34.09 18.4 35.43 C 18.4 35.43 18.4 37.05 18.4 37.05 C 18.4 38.39 17.32 39.48 16 39.48 Z" />
</svg>